<mxfile host="app.diagrams.net" agent="Mozilla/5.0 (Windows NT 10.0; Win64; x64) AppleWebKit/537.36 (KHTML, like Gecko) Chrome/132.0.0.0 Safari/537.36" version="26.0.16">
  <diagram name="Page-1" id="6lQtbRSQHbvlQOnN314Y">
    <mxGraphModel dx="954" dy="639" grid="1" gridSize="10" guides="1" tooltips="1" connect="1" arrows="1" fold="1" page="1" pageScale="1" pageWidth="1100" pageHeight="850" math="0" shadow="0">
      <root>
        <mxCell id="0" />
        <mxCell id="1" parent="0" />
        <mxCell id="f2LQSJBOT8YH_bBwWJ3X-127" value="" style="rounded=0;whiteSpace=wrap;html=1;fillColor=none;strokeWidth=2;dashed=1;" parent="1" vertex="1">
          <mxGeometry x="20" y="350" width="1060" height="100" as="geometry" />
        </mxCell>
        <mxCell id="f2LQSJBOT8YH_bBwWJ3X-128" value="" style="rounded=0;whiteSpace=wrap;html=1;fillColor=none;strokeWidth=2;dashed=1;" parent="1" vertex="1">
          <mxGeometry x="20" y="470" width="1060" height="100" as="geometry" />
        </mxCell>
        <mxCell id="DU_R5H5GNNCG0xB1YPOA-1" value="" style="endArrow=none;html=1;rounded=0;" parent="1" edge="1">
          <mxGeometry width="50" height="50" relative="1" as="geometry">
            <mxPoint x="540" y="39.16" as="sourcePoint" />
            <mxPoint x="560" y="39.16" as="targetPoint" />
          </mxGeometry>
        </mxCell>
        <mxCell id="DU_R5H5GNNCG0xB1YPOA-2" value="" style="endArrow=none;html=1;rounded=0;" parent="1" edge="1">
          <mxGeometry width="50" height="50" relative="1" as="geometry">
            <mxPoint x="560" y="19.159999999999997" as="sourcePoint" />
            <mxPoint x="560" y="39.16" as="targetPoint" />
          </mxGeometry>
        </mxCell>
        <mxCell id="DU_R5H5GNNCG0xB1YPOA-5" value="" style="endArrow=none;html=1;rounded=0;" parent="1" edge="1">
          <mxGeometry width="50" height="50" relative="1" as="geometry">
            <mxPoint x="560" y="19.159999999999997" as="sourcePoint" />
            <mxPoint x="580" y="19.159999999999997" as="targetPoint" />
          </mxGeometry>
        </mxCell>
        <mxCell id="DU_R5H5GNNCG0xB1YPOA-36" value="clk" style="text;html=1;align=center;verticalAlign=middle;resizable=0;points=[];autosize=1;strokeColor=none;fillColor=none;" parent="1" vertex="1">
          <mxGeometry x="510" y="19.159999999999997" width="40" height="30" as="geometry" />
        </mxCell>
        <mxCell id="DU_R5H5GNNCG0xB1YPOA-37" value="" style="endArrow=none;html=1;rounded=0;" parent="1" edge="1">
          <mxGeometry width="50" height="50" relative="1" as="geometry">
            <mxPoint x="580" y="19.159999999999997" as="sourcePoint" />
            <mxPoint x="580" y="39.16" as="targetPoint" />
          </mxGeometry>
        </mxCell>
        <mxCell id="DU_R5H5GNNCG0xB1YPOA-38" value="" style="endArrow=none;html=1;rounded=0;" parent="1" edge="1">
          <mxGeometry width="50" height="50" relative="1" as="geometry">
            <mxPoint x="580" y="38.93000000000001" as="sourcePoint" />
            <mxPoint x="600" y="38.93000000000001" as="targetPoint" />
          </mxGeometry>
        </mxCell>
        <mxCell id="DU_R5H5GNNCG0xB1YPOA-39" value="" style="endArrow=none;html=1;rounded=0;" parent="1" edge="1">
          <mxGeometry width="50" height="50" relative="1" as="geometry">
            <mxPoint x="600" y="18.930000000000007" as="sourcePoint" />
            <mxPoint x="600" y="38.93000000000001" as="targetPoint" />
          </mxGeometry>
        </mxCell>
        <mxCell id="DU_R5H5GNNCG0xB1YPOA-40" value="" style="endArrow=none;html=1;rounded=0;" parent="1" edge="1">
          <mxGeometry width="50" height="50" relative="1" as="geometry">
            <mxPoint x="600" y="18.930000000000007" as="sourcePoint" />
            <mxPoint x="620" y="18.930000000000007" as="targetPoint" />
          </mxGeometry>
        </mxCell>
        <mxCell id="DU_R5H5GNNCG0xB1YPOA-41" value="" style="endArrow=none;html=1;rounded=0;" parent="1" edge="1">
          <mxGeometry width="50" height="50" relative="1" as="geometry">
            <mxPoint x="620" y="18.930000000000007" as="sourcePoint" />
            <mxPoint x="620" y="38.93000000000001" as="targetPoint" />
          </mxGeometry>
        </mxCell>
        <mxCell id="DU_R5H5GNNCG0xB1YPOA-42" value="" style="endArrow=none;html=1;rounded=0;" parent="1" edge="1">
          <mxGeometry width="50" height="50" relative="1" as="geometry">
            <mxPoint x="620" y="38.93000000000001" as="sourcePoint" />
            <mxPoint x="640" y="38.93000000000001" as="targetPoint" />
          </mxGeometry>
        </mxCell>
        <mxCell id="DU_R5H5GNNCG0xB1YPOA-43" value="" style="endArrow=none;html=1;rounded=0;" parent="1" edge="1">
          <mxGeometry width="50" height="50" relative="1" as="geometry">
            <mxPoint x="640" y="18.930000000000007" as="sourcePoint" />
            <mxPoint x="640" y="38.93000000000001" as="targetPoint" />
          </mxGeometry>
        </mxCell>
        <mxCell id="DU_R5H5GNNCG0xB1YPOA-44" value="" style="endArrow=none;html=1;rounded=0;" parent="1" edge="1">
          <mxGeometry width="50" height="50" relative="1" as="geometry">
            <mxPoint x="640" y="18.930000000000007" as="sourcePoint" />
            <mxPoint x="660" y="18.930000000000007" as="targetPoint" />
          </mxGeometry>
        </mxCell>
        <mxCell id="DU_R5H5GNNCG0xB1YPOA-45" value="" style="endArrow=none;html=1;rounded=0;" parent="1" edge="1">
          <mxGeometry width="50" height="50" relative="1" as="geometry">
            <mxPoint x="660" y="18.930000000000007" as="sourcePoint" />
            <mxPoint x="660" y="38.93000000000001" as="targetPoint" />
          </mxGeometry>
        </mxCell>
        <mxCell id="DU_R5H5GNNCG0xB1YPOA-46" value="" style="endArrow=none;html=1;rounded=0;" parent="1" edge="1">
          <mxGeometry width="50" height="50" relative="1" as="geometry">
            <mxPoint x="660" y="38.829999999999984" as="sourcePoint" />
            <mxPoint x="680" y="38.829999999999984" as="targetPoint" />
          </mxGeometry>
        </mxCell>
        <mxCell id="DU_R5H5GNNCG0xB1YPOA-47" value="" style="endArrow=none;html=1;rounded=0;" parent="1" edge="1">
          <mxGeometry width="50" height="50" relative="1" as="geometry">
            <mxPoint x="680" y="18.829999999999984" as="sourcePoint" />
            <mxPoint x="680" y="38.829999999999984" as="targetPoint" />
          </mxGeometry>
        </mxCell>
        <mxCell id="DU_R5H5GNNCG0xB1YPOA-48" value="" style="endArrow=none;html=1;rounded=0;" parent="1" edge="1">
          <mxGeometry width="50" height="50" relative="1" as="geometry">
            <mxPoint x="680" y="18.829999999999984" as="sourcePoint" />
            <mxPoint x="700" y="18.829999999999984" as="targetPoint" />
          </mxGeometry>
        </mxCell>
        <mxCell id="DU_R5H5GNNCG0xB1YPOA-49" value="" style="endArrow=none;html=1;rounded=0;" parent="1" edge="1">
          <mxGeometry width="50" height="50" relative="1" as="geometry">
            <mxPoint x="700" y="18.829999999999984" as="sourcePoint" />
            <mxPoint x="700" y="38.829999999999984" as="targetPoint" />
          </mxGeometry>
        </mxCell>
        <mxCell id="DU_R5H5GNNCG0xB1YPOA-50" value="" style="endArrow=none;html=1;rounded=0;" parent="1" edge="1">
          <mxGeometry width="50" height="50" relative="1" as="geometry">
            <mxPoint x="700" y="38.829999999999984" as="sourcePoint" />
            <mxPoint x="720" y="38.829999999999984" as="targetPoint" />
          </mxGeometry>
        </mxCell>
        <mxCell id="DU_R5H5GNNCG0xB1YPOA-51" value="" style="endArrow=none;html=1;rounded=0;" parent="1" edge="1">
          <mxGeometry width="50" height="50" relative="1" as="geometry">
            <mxPoint x="720" y="18.829999999999984" as="sourcePoint" />
            <mxPoint x="720" y="38.829999999999984" as="targetPoint" />
          </mxGeometry>
        </mxCell>
        <mxCell id="DU_R5H5GNNCG0xB1YPOA-52" value="" style="endArrow=none;html=1;rounded=0;" parent="1" edge="1">
          <mxGeometry width="50" height="50" relative="1" as="geometry">
            <mxPoint x="720" y="18.829999999999984" as="sourcePoint" />
            <mxPoint x="740" y="18.829999999999984" as="targetPoint" />
          </mxGeometry>
        </mxCell>
        <mxCell id="DU_R5H5GNNCG0xB1YPOA-53" value="" style="endArrow=none;html=1;rounded=0;" parent="1" edge="1">
          <mxGeometry width="50" height="50" relative="1" as="geometry">
            <mxPoint x="740" y="18.829999999999984" as="sourcePoint" />
            <mxPoint x="740" y="38.829999999999984" as="targetPoint" />
          </mxGeometry>
        </mxCell>
        <mxCell id="DU_R5H5GNNCG0xB1YPOA-54" value="" style="endArrow=none;html=1;rounded=0;" parent="1" edge="1">
          <mxGeometry width="50" height="50" relative="1" as="geometry">
            <mxPoint x="740" y="38.829999999999984" as="sourcePoint" />
            <mxPoint x="760" y="38.829999999999984" as="targetPoint" />
          </mxGeometry>
        </mxCell>
        <mxCell id="DU_R5H5GNNCG0xB1YPOA-55" value="" style="endArrow=none;html=1;rounded=0;" parent="1" edge="1">
          <mxGeometry width="50" height="50" relative="1" as="geometry">
            <mxPoint x="760" y="18.829999999999984" as="sourcePoint" />
            <mxPoint x="760" y="38.829999999999984" as="targetPoint" />
          </mxGeometry>
        </mxCell>
        <mxCell id="DU_R5H5GNNCG0xB1YPOA-56" value="" style="endArrow=none;html=1;rounded=0;" parent="1" edge="1">
          <mxGeometry width="50" height="50" relative="1" as="geometry">
            <mxPoint x="760" y="18.829999999999984" as="sourcePoint" />
            <mxPoint x="780" y="18.829999999999984" as="targetPoint" />
          </mxGeometry>
        </mxCell>
        <mxCell id="DU_R5H5GNNCG0xB1YPOA-57" value="" style="endArrow=none;html=1;rounded=0;" parent="1" edge="1">
          <mxGeometry width="50" height="50" relative="1" as="geometry">
            <mxPoint x="780" y="18.829999999999984" as="sourcePoint" />
            <mxPoint x="780" y="38.829999999999984" as="targetPoint" />
          </mxGeometry>
        </mxCell>
        <mxCell id="DU_R5H5GNNCG0xB1YPOA-58" value="" style="endArrow=none;html=1;rounded=0;" parent="1" edge="1">
          <mxGeometry width="50" height="50" relative="1" as="geometry">
            <mxPoint x="780" y="38.599999999999994" as="sourcePoint" />
            <mxPoint x="800" y="38.599999999999994" as="targetPoint" />
          </mxGeometry>
        </mxCell>
        <mxCell id="DU_R5H5GNNCG0xB1YPOA-59" value="" style="endArrow=none;html=1;rounded=0;" parent="1" edge="1">
          <mxGeometry width="50" height="50" relative="1" as="geometry">
            <mxPoint x="800" y="18.599999999999994" as="sourcePoint" />
            <mxPoint x="800" y="38.599999999999994" as="targetPoint" />
          </mxGeometry>
        </mxCell>
        <mxCell id="DU_R5H5GNNCG0xB1YPOA-60" value="" style="endArrow=none;html=1;rounded=0;" parent="1" edge="1">
          <mxGeometry width="50" height="50" relative="1" as="geometry">
            <mxPoint x="800" y="18.599999999999994" as="sourcePoint" />
            <mxPoint x="820" y="18.599999999999994" as="targetPoint" />
          </mxGeometry>
        </mxCell>
        <mxCell id="DU_R5H5GNNCG0xB1YPOA-61" value="" style="endArrow=none;html=1;rounded=0;" parent="1" edge="1">
          <mxGeometry width="50" height="50" relative="1" as="geometry">
            <mxPoint x="820" y="18.599999999999994" as="sourcePoint" />
            <mxPoint x="820" y="38.599999999999994" as="targetPoint" />
          </mxGeometry>
        </mxCell>
        <mxCell id="DU_R5H5GNNCG0xB1YPOA-62" value="" style="endArrow=none;html=1;rounded=0;" parent="1" edge="1">
          <mxGeometry width="50" height="50" relative="1" as="geometry">
            <mxPoint x="820" y="38.599999999999994" as="sourcePoint" />
            <mxPoint x="840" y="38.599999999999994" as="targetPoint" />
          </mxGeometry>
        </mxCell>
        <mxCell id="DU_R5H5GNNCG0xB1YPOA-63" value="" style="endArrow=none;html=1;rounded=0;" parent="1" edge="1">
          <mxGeometry width="50" height="50" relative="1" as="geometry">
            <mxPoint x="840" y="18.599999999999994" as="sourcePoint" />
            <mxPoint x="840" y="38.599999999999994" as="targetPoint" />
          </mxGeometry>
        </mxCell>
        <mxCell id="DU_R5H5GNNCG0xB1YPOA-64" value="" style="endArrow=none;html=1;rounded=0;" parent="1" edge="1">
          <mxGeometry width="50" height="50" relative="1" as="geometry">
            <mxPoint x="840" y="18.599999999999994" as="sourcePoint" />
            <mxPoint x="860" y="18.599999999999994" as="targetPoint" />
          </mxGeometry>
        </mxCell>
        <mxCell id="DU_R5H5GNNCG0xB1YPOA-65" value="" style="endArrow=none;html=1;rounded=0;" parent="1" edge="1">
          <mxGeometry width="50" height="50" relative="1" as="geometry">
            <mxPoint x="860" y="18.599999999999994" as="sourcePoint" />
            <mxPoint x="860" y="38.599999999999994" as="targetPoint" />
          </mxGeometry>
        </mxCell>
        <mxCell id="DU_R5H5GNNCG0xB1YPOA-66" value="" style="endArrow=none;html=1;rounded=0;" parent="1" edge="1">
          <mxGeometry width="50" height="50" relative="1" as="geometry">
            <mxPoint x="860" y="38.49999999999997" as="sourcePoint" />
            <mxPoint x="880" y="38.49999999999997" as="targetPoint" />
          </mxGeometry>
        </mxCell>
        <mxCell id="DU_R5H5GNNCG0xB1YPOA-67" value="" style="endArrow=none;html=1;rounded=0;" parent="1" edge="1">
          <mxGeometry width="50" height="50" relative="1" as="geometry">
            <mxPoint x="880" y="18.49999999999997" as="sourcePoint" />
            <mxPoint x="880" y="38.49999999999997" as="targetPoint" />
          </mxGeometry>
        </mxCell>
        <mxCell id="DU_R5H5GNNCG0xB1YPOA-68" value="" style="endArrow=none;html=1;rounded=0;" parent="1" edge="1">
          <mxGeometry width="50" height="50" relative="1" as="geometry">
            <mxPoint x="880" y="18.49999999999997" as="sourcePoint" />
            <mxPoint x="900" y="18.49999999999997" as="targetPoint" />
          </mxGeometry>
        </mxCell>
        <mxCell id="DU_R5H5GNNCG0xB1YPOA-69" value="" style="endArrow=none;html=1;rounded=0;" parent="1" edge="1">
          <mxGeometry width="50" height="50" relative="1" as="geometry">
            <mxPoint x="900" y="18.49999999999997" as="sourcePoint" />
            <mxPoint x="900" y="38.49999999999997" as="targetPoint" />
          </mxGeometry>
        </mxCell>
        <mxCell id="DU_R5H5GNNCG0xB1YPOA-70" value="" style="endArrow=none;html=1;rounded=0;" parent="1" edge="1">
          <mxGeometry width="50" height="50" relative="1" as="geometry">
            <mxPoint x="900" y="38.49999999999997" as="sourcePoint" />
            <mxPoint x="920" y="38.49999999999997" as="targetPoint" />
          </mxGeometry>
        </mxCell>
        <mxCell id="DU_R5H5GNNCG0xB1YPOA-71" value="" style="endArrow=none;html=1;rounded=0;" parent="1" edge="1">
          <mxGeometry width="50" height="50" relative="1" as="geometry">
            <mxPoint x="920" y="18.49999999999997" as="sourcePoint" />
            <mxPoint x="920" y="38.49999999999997" as="targetPoint" />
          </mxGeometry>
        </mxCell>
        <mxCell id="DU_R5H5GNNCG0xB1YPOA-72" value="" style="endArrow=none;html=1;rounded=0;" parent="1" edge="1">
          <mxGeometry width="50" height="50" relative="1" as="geometry">
            <mxPoint x="920" y="18.49999999999997" as="sourcePoint" />
            <mxPoint x="940" y="18.49999999999997" as="targetPoint" />
          </mxGeometry>
        </mxCell>
        <mxCell id="DU_R5H5GNNCG0xB1YPOA-73" value="" style="endArrow=none;html=1;rounded=0;" parent="1" edge="1">
          <mxGeometry width="50" height="50" relative="1" as="geometry">
            <mxPoint x="940" y="18.49999999999997" as="sourcePoint" />
            <mxPoint x="940" y="38.49999999999997" as="targetPoint" />
          </mxGeometry>
        </mxCell>
        <mxCell id="DU_R5H5GNNCG0xB1YPOA-74" value="icache-req-valid" style="text;html=1;align=right;verticalAlign=middle;resizable=0;points=[];autosize=1;strokeColor=none;fillColor=none;" parent="1" vertex="1">
          <mxGeometry x="430" y="50.66" width="110" height="30" as="geometry" />
        </mxCell>
        <mxCell id="DU_R5H5GNNCG0xB1YPOA-75" value="icache-resp-valid" style="text;html=1;align=right;verticalAlign=middle;resizable=0;points=[];autosize=1;strokeColor=none;fillColor=none;" parent="1" vertex="1">
          <mxGeometry x="430" y="90.66" width="110" height="30" as="geometry" />
        </mxCell>
        <mxCell id="DU_R5H5GNNCG0xB1YPOA-76" value="" style="endArrow=none;html=1;rounded=0;" parent="1" edge="1">
          <mxGeometry width="50" height="50" relative="1" as="geometry">
            <mxPoint x="540" y="79.16" as="sourcePoint" />
            <mxPoint x="600" y="79.16" as="targetPoint" />
          </mxGeometry>
        </mxCell>
        <mxCell id="DU_R5H5GNNCG0xB1YPOA-77" value="" style="endArrow=none;html=1;rounded=0;" parent="1" edge="1">
          <mxGeometry width="50" height="50" relative="1" as="geometry">
            <mxPoint x="600" y="59.16" as="sourcePoint" />
            <mxPoint x="600" y="79.16" as="targetPoint" />
          </mxGeometry>
        </mxCell>
        <mxCell id="DU_R5H5GNNCG0xB1YPOA-78" value="" style="endArrow=none;html=1;rounded=0;" parent="1" edge="1">
          <mxGeometry width="50" height="50" relative="1" as="geometry">
            <mxPoint x="600" y="59.16" as="sourcePoint" />
            <mxPoint x="640" y="59.16" as="targetPoint" />
          </mxGeometry>
        </mxCell>
        <mxCell id="DU_R5H5GNNCG0xB1YPOA-82" value="" style="endArrow=none;html=1;rounded=0;" parent="1" edge="1">
          <mxGeometry width="50" height="50" relative="1" as="geometry">
            <mxPoint x="640" y="59.16" as="sourcePoint" />
            <mxPoint x="640" y="79.16" as="targetPoint" />
          </mxGeometry>
        </mxCell>
        <mxCell id="DU_R5H5GNNCG0xB1YPOA-85" value="" style="endArrow=none;html=1;rounded=0;" parent="1" edge="1">
          <mxGeometry width="50" height="50" relative="1" as="geometry">
            <mxPoint x="640" y="79.16" as="sourcePoint" />
            <mxPoint x="920" y="79.16" as="targetPoint" />
          </mxGeometry>
        </mxCell>
        <mxCell id="DU_R5H5GNNCG0xB1YPOA-87" value="" style="endArrow=none;html=1;rounded=0;" parent="1" edge="1">
          <mxGeometry width="50" height="50" relative="1" as="geometry">
            <mxPoint x="540" y="119.16" as="sourcePoint" />
            <mxPoint x="760" y="119.16" as="targetPoint" />
          </mxGeometry>
        </mxCell>
        <mxCell id="DU_R5H5GNNCG0xB1YPOA-88" value="" style="endArrow=none;html=1;rounded=0;" parent="1" edge="1">
          <mxGeometry width="50" height="50" relative="1" as="geometry">
            <mxPoint x="760" y="99.16" as="sourcePoint" />
            <mxPoint x="760" y="119.16" as="targetPoint" />
          </mxGeometry>
        </mxCell>
        <mxCell id="DU_R5H5GNNCG0xB1YPOA-89" value="" style="endArrow=none;html=1;rounded=0;" parent="1" edge="1">
          <mxGeometry width="50" height="50" relative="1" as="geometry">
            <mxPoint x="760" y="99.16" as="sourcePoint" />
            <mxPoint x="800" y="99.16" as="targetPoint" />
          </mxGeometry>
        </mxCell>
        <mxCell id="DU_R5H5GNNCG0xB1YPOA-90" value="" style="endArrow=none;html=1;rounded=0;" parent="1" edge="1">
          <mxGeometry width="50" height="50" relative="1" as="geometry">
            <mxPoint x="800" y="99.16" as="sourcePoint" />
            <mxPoint x="800" y="119.16" as="targetPoint" />
          </mxGeometry>
        </mxCell>
        <mxCell id="DU_R5H5GNNCG0xB1YPOA-91" value="" style="endArrow=none;html=1;rounded=0;" parent="1" edge="1">
          <mxGeometry width="50" height="50" relative="1" as="geometry">
            <mxPoint x="800" y="119.16" as="sourcePoint" />
            <mxPoint x="1080" y="119.16" as="targetPoint" />
          </mxGeometry>
        </mxCell>
        <mxCell id="DU_R5H5GNNCG0xB1YPOA-92" value="" style="endArrow=none;html=1;rounded=0;" parent="1" edge="1">
          <mxGeometry width="50" height="50" relative="1" as="geometry">
            <mxPoint x="540" y="199.49999999999997" as="sourcePoint" />
            <mxPoint x="760" y="199.16" as="targetPoint" />
          </mxGeometry>
        </mxCell>
        <mxCell id="DU_R5H5GNNCG0xB1YPOA-93" value="" style="endArrow=none;html=1;rounded=0;" parent="1" edge="1">
          <mxGeometry width="50" height="50" relative="1" as="geometry">
            <mxPoint x="760" y="179.49999999999997" as="sourcePoint" />
            <mxPoint x="760" y="199.49999999999997" as="targetPoint" />
          </mxGeometry>
        </mxCell>
        <mxCell id="DU_R5H5GNNCG0xB1YPOA-94" value="" style="endArrow=none;html=1;rounded=0;" parent="1" edge="1">
          <mxGeometry width="50" height="50" relative="1" as="geometry">
            <mxPoint x="760" y="179.16" as="sourcePoint" />
            <mxPoint x="960" y="179.49999999999997" as="targetPoint" />
          </mxGeometry>
        </mxCell>
        <mxCell id="DU_R5H5GNNCG0xB1YPOA-96" value="fet-valid" style="text;html=1;align=right;verticalAlign=middle;resizable=0;points=[];autosize=1;strokeColor=none;fillColor=none;" parent="1" vertex="1">
          <mxGeometry x="470" y="179.49999999999997" width="70" height="30" as="geometry" />
        </mxCell>
        <mxCell id="DU_R5H5GNNCG0xB1YPOA-103" value="" style="endArrow=none;html=1;rounded=0;" parent="1" edge="1">
          <mxGeometry width="50" height="50" relative="1" as="geometry">
            <mxPoint x="880" y="219.16" as="sourcePoint" />
            <mxPoint x="920" y="219.16" as="targetPoint" />
          </mxGeometry>
        </mxCell>
        <mxCell id="DU_R5H5GNNCG0xB1YPOA-104" value="" style="endArrow=none;html=1;rounded=0;" parent="1" edge="1">
          <mxGeometry width="50" height="50" relative="1" as="geometry">
            <mxPoint x="920" y="219.16" as="sourcePoint" />
            <mxPoint x="920" y="239.16" as="targetPoint" />
          </mxGeometry>
        </mxCell>
        <mxCell id="DU_R5H5GNNCG0xB1YPOA-105" value="" style="endArrow=none;html=1;rounded=0;" parent="1" edge="1">
          <mxGeometry width="50" height="50" relative="1" as="geometry">
            <mxPoint x="920" y="239.16" as="sourcePoint" />
            <mxPoint x="1080" y="239.16" as="targetPoint" />
          </mxGeometry>
        </mxCell>
        <mxCell id="DU_R5H5GNNCG0xB1YPOA-106" value="dec-ready" style="text;html=1;align=right;verticalAlign=middle;resizable=0;points=[];autosize=1;strokeColor=none;fillColor=none;" parent="1" vertex="1">
          <mxGeometry x="460" y="213.49999999999997" width="80" height="30" as="geometry" />
        </mxCell>
        <mxCell id="DU_R5H5GNNCG0xB1YPOA-128" value="" style="group" parent="1" vertex="1" connectable="0">
          <mxGeometry x="640" y="79.16" width="120" height="40" as="geometry" />
        </mxCell>
        <mxCell id="DU_R5H5GNNCG0xB1YPOA-129" value="" style="endArrow=classic;startArrow=classic;html=1;rounded=0;curved=0;" parent="DU_R5H5GNNCG0xB1YPOA-128" edge="1">
          <mxGeometry width="50" height="50" relative="1" as="geometry">
            <mxPoint y="20" as="sourcePoint" />
            <mxPoint x="120" y="20" as="targetPoint" />
          </mxGeometry>
        </mxCell>
        <mxCell id="DU_R5H5GNNCG0xB1YPOA-130" value="some time" style="edgeLabel;html=1;align=center;verticalAlign=middle;resizable=0;points=[];" parent="DU_R5H5GNNCG0xB1YPOA-129" vertex="1" connectable="0">
          <mxGeometry x="0.008" relative="1" as="geometry">
            <mxPoint as="offset" />
          </mxGeometry>
        </mxCell>
        <mxCell id="DU_R5H5GNNCG0xB1YPOA-131" value="" style="endArrow=none;dashed=1;html=1;dashPattern=1 3;strokeWidth=2;rounded=0;" parent="DU_R5H5GNNCG0xB1YPOA-128" edge="1">
          <mxGeometry width="50" height="50" relative="1" as="geometry">
            <mxPoint y="40" as="sourcePoint" />
            <mxPoint as="targetPoint" />
          </mxGeometry>
        </mxCell>
        <mxCell id="DU_R5H5GNNCG0xB1YPOA-132" value="" style="endArrow=none;dashed=1;html=1;dashPattern=1 3;strokeWidth=2;rounded=0;" parent="DU_R5H5GNNCG0xB1YPOA-128" edge="1">
          <mxGeometry width="50" height="50" relative="1" as="geometry">
            <mxPoint x="120" y="40" as="sourcePoint" />
            <mxPoint x="120" as="targetPoint" />
          </mxGeometry>
        </mxCell>
        <mxCell id="DU_R5H5GNNCG0xB1YPOA-139" value="" style="endArrow=none;html=1;rounded=0;" parent="1" edge="1">
          <mxGeometry width="50" height="50" relative="1" as="geometry">
            <mxPoint x="960" y="179.49999999999997" as="sourcePoint" />
            <mxPoint x="960" y="199.49999999999997" as="targetPoint" />
          </mxGeometry>
        </mxCell>
        <mxCell id="DU_R5H5GNNCG0xB1YPOA-140" value="" style="endArrow=none;html=1;rounded=0;" parent="1" edge="1">
          <mxGeometry width="50" height="50" relative="1" as="geometry">
            <mxPoint x="960" y="199.49999999999997" as="sourcePoint" />
            <mxPoint x="1080" y="199.16" as="targetPoint" />
          </mxGeometry>
        </mxCell>
        <mxCell id="DU_R5H5GNNCG0xB1YPOA-141" value="" style="endArrow=none;html=1;rounded=0;" parent="1" edge="1">
          <mxGeometry width="50" height="50" relative="1" as="geometry">
            <mxPoint x="920" y="59.16" as="sourcePoint" />
            <mxPoint x="920" y="79.16" as="targetPoint" />
          </mxGeometry>
        </mxCell>
        <mxCell id="DU_R5H5GNNCG0xB1YPOA-142" value="" style="endArrow=none;html=1;rounded=0;" parent="1" edge="1">
          <mxGeometry width="50" height="50" relative="1" as="geometry">
            <mxPoint x="920" y="59.16" as="sourcePoint" />
            <mxPoint x="960" y="59.16" as="targetPoint" />
          </mxGeometry>
        </mxCell>
        <mxCell id="DU_R5H5GNNCG0xB1YPOA-143" value="" style="endArrow=none;html=1;rounded=0;" parent="1" edge="1">
          <mxGeometry width="50" height="50" relative="1" as="geometry">
            <mxPoint x="960" y="59.16" as="sourcePoint" />
            <mxPoint x="960" y="79.16" as="targetPoint" />
          </mxGeometry>
        </mxCell>
        <mxCell id="DU_R5H5GNNCG0xB1YPOA-144" value="" style="endArrow=none;html=1;rounded=0;" parent="1" edge="1">
          <mxGeometry width="50" height="50" relative="1" as="geometry">
            <mxPoint x="920" y="59.16" as="sourcePoint" />
            <mxPoint x="920" y="79.16" as="targetPoint" />
          </mxGeometry>
        </mxCell>
        <mxCell id="DU_R5H5GNNCG0xB1YPOA-150" value="" style="endArrow=none;html=1;rounded=0;" parent="1" edge="1">
          <mxGeometry width="50" height="50" relative="1" as="geometry">
            <mxPoint x="960" y="79.16" as="sourcePoint" />
            <mxPoint x="1080" y="79.16" as="targetPoint" />
          </mxGeometry>
        </mxCell>
        <mxCell id="DU_R5H5GNNCG0xB1YPOA-154" value="" style="endArrow=none;html=1;rounded=0;" parent="1" edge="1">
          <mxGeometry width="50" height="50" relative="1" as="geometry">
            <mxPoint x="940" y="39.48999999999998" as="sourcePoint" />
            <mxPoint x="960" y="39.48999999999998" as="targetPoint" />
          </mxGeometry>
        </mxCell>
        <mxCell id="DU_R5H5GNNCG0xB1YPOA-155" value="" style="endArrow=none;html=1;rounded=0;" parent="1" edge="1">
          <mxGeometry width="50" height="50" relative="1" as="geometry">
            <mxPoint x="960" y="19.48999999999998" as="sourcePoint" />
            <mxPoint x="960" y="39.48999999999998" as="targetPoint" />
          </mxGeometry>
        </mxCell>
        <mxCell id="DU_R5H5GNNCG0xB1YPOA-156" value="" style="endArrow=none;html=1;rounded=0;" parent="1" edge="1">
          <mxGeometry width="50" height="50" relative="1" as="geometry">
            <mxPoint x="960" y="19.48999999999998" as="sourcePoint" />
            <mxPoint x="980" y="19.48999999999998" as="targetPoint" />
          </mxGeometry>
        </mxCell>
        <mxCell id="DU_R5H5GNNCG0xB1YPOA-157" value="" style="endArrow=none;html=1;rounded=0;" parent="1" edge="1">
          <mxGeometry width="50" height="50" relative="1" as="geometry">
            <mxPoint x="980" y="19.48999999999998" as="sourcePoint" />
            <mxPoint x="980" y="39.48999999999998" as="targetPoint" />
          </mxGeometry>
        </mxCell>
        <mxCell id="DU_R5H5GNNCG0xB1YPOA-158" value="" style="endArrow=none;html=1;rounded=0;" parent="1" edge="1">
          <mxGeometry width="50" height="50" relative="1" as="geometry">
            <mxPoint x="980" y="39.48999999999998" as="sourcePoint" />
            <mxPoint x="1000" y="39.48999999999998" as="targetPoint" />
          </mxGeometry>
        </mxCell>
        <mxCell id="DU_R5H5GNNCG0xB1YPOA-159" value="" style="endArrow=none;html=1;rounded=0;" parent="1" edge="1">
          <mxGeometry width="50" height="50" relative="1" as="geometry">
            <mxPoint x="1000" y="19.48999999999998" as="sourcePoint" />
            <mxPoint x="1000" y="39.48999999999998" as="targetPoint" />
          </mxGeometry>
        </mxCell>
        <mxCell id="DU_R5H5GNNCG0xB1YPOA-160" value="" style="endArrow=none;html=1;rounded=0;" parent="1" edge="1">
          <mxGeometry width="50" height="50" relative="1" as="geometry">
            <mxPoint x="1000" y="19.48999999999998" as="sourcePoint" />
            <mxPoint x="1020" y="19.48999999999998" as="targetPoint" />
          </mxGeometry>
        </mxCell>
        <mxCell id="DU_R5H5GNNCG0xB1YPOA-161" value="" style="endArrow=none;html=1;rounded=0;" parent="1" edge="1">
          <mxGeometry width="50" height="50" relative="1" as="geometry">
            <mxPoint x="1020" y="19.48999999999998" as="sourcePoint" />
            <mxPoint x="1020" y="39.48999999999998" as="targetPoint" />
          </mxGeometry>
        </mxCell>
        <mxCell id="DU_R5H5GNNCG0xB1YPOA-162" value="" style="endArrow=none;html=1;rounded=0;" parent="1" edge="1">
          <mxGeometry width="50" height="50" relative="1" as="geometry">
            <mxPoint x="1020" y="39.48999999999998" as="sourcePoint" />
            <mxPoint x="1040" y="39.48999999999998" as="targetPoint" />
          </mxGeometry>
        </mxCell>
        <mxCell id="DU_R5H5GNNCG0xB1YPOA-163" value="" style="endArrow=none;html=1;rounded=0;" parent="1" edge="1">
          <mxGeometry width="50" height="50" relative="1" as="geometry">
            <mxPoint x="1040" y="19.48999999999998" as="sourcePoint" />
            <mxPoint x="1040" y="39.48999999999998" as="targetPoint" />
          </mxGeometry>
        </mxCell>
        <mxCell id="DU_R5H5GNNCG0xB1YPOA-164" value="" style="endArrow=none;html=1;rounded=0;" parent="1" edge="1">
          <mxGeometry width="50" height="50" relative="1" as="geometry">
            <mxPoint x="1040" y="19.48999999999998" as="sourcePoint" />
            <mxPoint x="1060" y="19.48999999999998" as="targetPoint" />
          </mxGeometry>
        </mxCell>
        <mxCell id="DU_R5H5GNNCG0xB1YPOA-165" value="" style="endArrow=none;html=1;rounded=0;" parent="1" edge="1">
          <mxGeometry width="50" height="50" relative="1" as="geometry">
            <mxPoint x="1060" y="19.48999999999998" as="sourcePoint" />
            <mxPoint x="1060" y="39.48999999999998" as="targetPoint" />
          </mxGeometry>
        </mxCell>
        <mxCell id="DU_R5H5GNNCG0xB1YPOA-166" value="" style="endArrow=none;html=1;rounded=0;" parent="1" edge="1">
          <mxGeometry width="50" height="50" relative="1" as="geometry">
            <mxPoint x="1060" y="39.25999999999999" as="sourcePoint" />
            <mxPoint x="1080" y="39.25999999999999" as="targetPoint" />
          </mxGeometry>
        </mxCell>
        <mxCell id="DU_R5H5GNNCG0xB1YPOA-182" value="" style="endArrow=none;html=1;rounded=0;" parent="1" edge="1">
          <mxGeometry width="50" height="50" relative="1" as="geometry">
            <mxPoint x="540" y="159.49999999999997" as="sourcePoint" />
            <mxPoint x="1080" y="159.49999999999997" as="targetPoint" />
          </mxGeometry>
        </mxCell>
        <mxCell id="DU_R5H5GNNCG0xB1YPOA-183" value="" style="endArrow=none;html=1;rounded=0;" parent="1" edge="1">
          <mxGeometry width="50" height="50" relative="1" as="geometry">
            <mxPoint x="540" y="139.16" as="sourcePoint" />
            <mxPoint x="1080" y="139.16" as="targetPoint" />
          </mxGeometry>
        </mxCell>
        <mxCell id="DU_R5H5GNNCG0xB1YPOA-184" value="" style="endArrow=none;html=1;rounded=0;" parent="1" edge="1">
          <mxGeometry width="50" height="50" relative="1" as="geometry">
            <mxPoint x="750" y="159.49999999999997" as="sourcePoint" />
            <mxPoint x="770" y="139.49999999999997" as="targetPoint" />
          </mxGeometry>
        </mxCell>
        <mxCell id="DU_R5H5GNNCG0xB1YPOA-185" value="" style="endArrow=none;html=1;rounded=0;" parent="1" edge="1">
          <mxGeometry width="50" height="50" relative="1" as="geometry">
            <mxPoint x="770" y="159.49999999999997" as="sourcePoint" />
            <mxPoint x="750" y="139.49999999999997" as="targetPoint" />
          </mxGeometry>
        </mxCell>
        <mxCell id="DU_R5H5GNNCG0xB1YPOA-188" value="icache-resp-data" style="text;html=1;align=right;verticalAlign=middle;resizable=0;points=[];autosize=1;strokeColor=none;fillColor=none;" parent="1" vertex="1">
          <mxGeometry x="430" y="130.99999999999997" width="110" height="30" as="geometry" />
        </mxCell>
        <mxCell id="DU_R5H5GNNCG0xB1YPOA-211" value="" style="endArrow=none;html=1;rounded=0;" parent="1" edge="1">
          <mxGeometry width="50" height="50" relative="1" as="geometry">
            <mxPoint x="540" y="219.16" as="sourcePoint" />
            <mxPoint x="880" y="219.16" as="targetPoint" />
          </mxGeometry>
        </mxCell>
        <mxCell id="DU_R5H5GNNCG0xB1YPOA-242" value="" style="endArrow=none;html=1;rounded=0;" parent="1" edge="1">
          <mxGeometry width="50" height="50" relative="1" as="geometry">
            <mxPoint x="540" y="268.5" as="sourcePoint" />
            <mxPoint x="800" y="268.49999999999994" as="targetPoint" />
          </mxGeometry>
        </mxCell>
        <mxCell id="DU_R5H5GNNCG0xB1YPOA-243" value="" style="endArrow=none;html=1;rounded=0;" parent="1" edge="1">
          <mxGeometry width="50" height="50" relative="1" as="geometry">
            <mxPoint x="800" y="248.83999999999997" as="sourcePoint" />
            <mxPoint x="800" y="268.84" as="targetPoint" />
          </mxGeometry>
        </mxCell>
        <mxCell id="DU_R5H5GNNCG0xB1YPOA-244" value="" style="endArrow=none;html=1;rounded=0;" parent="1" edge="1">
          <mxGeometry width="50" height="50" relative="1" as="geometry">
            <mxPoint x="800" y="248.5" as="sourcePoint" />
            <mxPoint x="960" y="248.5" as="targetPoint" />
          </mxGeometry>
        </mxCell>
        <mxCell id="DU_R5H5GNNCG0xB1YPOA-245" value="" style="endArrow=none;html=1;rounded=0;" parent="1" edge="1">
          <mxGeometry width="50" height="50" relative="1" as="geometry">
            <mxPoint x="960" y="248.5" as="sourcePoint" />
            <mxPoint x="960" y="268.49999999999994" as="targetPoint" />
          </mxGeometry>
        </mxCell>
        <mxCell id="DU_R5H5GNNCG0xB1YPOA-246" value="" style="endArrow=none;html=1;rounded=0;" parent="1" edge="1">
          <mxGeometry width="50" height="50" relative="1" as="geometry">
            <mxPoint x="960" y="268.49999999999994" as="sourcePoint" />
            <mxPoint x="1080" y="268.1599999999999" as="targetPoint" />
          </mxGeometry>
        </mxCell>
        <mxCell id="DU_R5H5GNNCG0xB1YPOA-247" value="fet-valid-help" style="text;html=1;align=right;verticalAlign=middle;resizable=0;points=[];autosize=1;strokeColor=none;fillColor=none;" parent="1" vertex="1">
          <mxGeometry x="450" y="243.49999999999997" width="90" height="30" as="geometry" />
        </mxCell>
        <mxCell id="f2LQSJBOT8YH_bBwWJ3X-55" value="" style="endArrow=none;html=1;rounded=0;" parent="1" edge="1">
          <mxGeometry width="50" height="50" relative="1" as="geometry">
            <mxPoint x="120" y="360.66" as="sourcePoint" />
            <mxPoint x="460" y="360.66" as="targetPoint" />
          </mxGeometry>
        </mxCell>
        <mxCell id="f2LQSJBOT8YH_bBwWJ3X-59" value="" style="endArrow=none;html=1;rounded=0;" parent="1" edge="1">
          <mxGeometry width="50" height="50" relative="1" as="geometry">
            <mxPoint x="120" y="479.71" as="sourcePoint" />
            <mxPoint x="190" y="479.71" as="targetPoint" />
          </mxGeometry>
        </mxCell>
        <mxCell id="f2LQSJBOT8YH_bBwWJ3X-75" value="" style="endArrow=none;html=1;rounded=0;" parent="1" edge="1">
          <mxGeometry width="50" height="50" relative="1" as="geometry">
            <mxPoint x="120" y="440" as="sourcePoint" />
            <mxPoint x="180" y="440" as="targetPoint" />
          </mxGeometry>
        </mxCell>
        <mxCell id="f2LQSJBOT8YH_bBwWJ3X-76" value="" style="endArrow=none;html=1;rounded=0;" parent="1" edge="1">
          <mxGeometry width="50" height="50" relative="1" as="geometry">
            <mxPoint x="180" y="420" as="sourcePoint" />
            <mxPoint x="180" y="440" as="targetPoint" />
          </mxGeometry>
        </mxCell>
        <mxCell id="f2LQSJBOT8YH_bBwWJ3X-77" value="" style="endArrow=none;html=1;rounded=0;" parent="1" edge="1">
          <mxGeometry width="50" height="50" relative="1" as="geometry">
            <mxPoint x="180" y="420" as="sourcePoint" />
            <mxPoint x="190" y="420" as="targetPoint" />
          </mxGeometry>
        </mxCell>
        <mxCell id="f2LQSJBOT8YH_bBwWJ3X-78" value="" style="endArrow=none;html=1;rounded=0;" parent="1" edge="1">
          <mxGeometry width="50" height="50" relative="1" as="geometry">
            <mxPoint x="190" y="420" as="sourcePoint" />
            <mxPoint x="190" y="440" as="targetPoint" />
          </mxGeometry>
        </mxCell>
        <mxCell id="f2LQSJBOT8YH_bBwWJ3X-79" value="" style="endArrow=none;html=1;rounded=0;" parent="1" edge="1">
          <mxGeometry width="50" height="50" relative="1" as="geometry">
            <mxPoint x="190" y="479.71" as="sourcePoint" />
            <mxPoint x="190" y="499.71" as="targetPoint" />
          </mxGeometry>
        </mxCell>
        <mxCell id="f2LQSJBOT8YH_bBwWJ3X-80" value="" style="endArrow=none;html=1;rounded=0;" parent="1" edge="1">
          <mxGeometry width="50" height="50" relative="1" as="geometry">
            <mxPoint x="190" y="499.71" as="sourcePoint" />
            <mxPoint x="310" y="500" as="targetPoint" />
          </mxGeometry>
        </mxCell>
        <mxCell id="f2LQSJBOT8YH_bBwWJ3X-81" value="" style="endArrow=none;html=1;rounded=0;" parent="1" edge="1">
          <mxGeometry width="50" height="50" relative="1" as="geometry">
            <mxPoint x="190" y="440" as="sourcePoint" />
            <mxPoint x="400" y="440" as="targetPoint" />
          </mxGeometry>
        </mxCell>
        <mxCell id="f2LQSJBOT8YH_bBwWJ3X-103" value="" style="group" parent="1" vertex="1" connectable="0">
          <mxGeometry x="190" y="499.71" width="120" height="40" as="geometry" />
        </mxCell>
        <mxCell id="f2LQSJBOT8YH_bBwWJ3X-104" value="" style="endArrow=classic;startArrow=classic;html=1;rounded=0;curved=0;" parent="f2LQSJBOT8YH_bBwWJ3X-103" edge="1">
          <mxGeometry width="50" height="50" relative="1" as="geometry">
            <mxPoint y="20" as="sourcePoint" />
            <mxPoint x="120" y="20" as="targetPoint" />
          </mxGeometry>
        </mxCell>
        <mxCell id="f2LQSJBOT8YH_bBwWJ3X-105" value="working period" style="edgeLabel;html=1;align=center;verticalAlign=middle;resizable=0;points=[];" parent="f2LQSJBOT8YH_bBwWJ3X-104" vertex="1" connectable="0">
          <mxGeometry x="0.008" relative="1" as="geometry">
            <mxPoint as="offset" />
          </mxGeometry>
        </mxCell>
        <mxCell id="f2LQSJBOT8YH_bBwWJ3X-106" value="" style="endArrow=none;dashed=1;html=1;dashPattern=1 3;strokeWidth=2;rounded=0;" parent="f2LQSJBOT8YH_bBwWJ3X-103" edge="1">
          <mxGeometry width="50" height="50" relative="1" as="geometry">
            <mxPoint y="40" as="sourcePoint" />
            <mxPoint as="targetPoint" />
          </mxGeometry>
        </mxCell>
        <mxCell id="f2LQSJBOT8YH_bBwWJ3X-107" value="" style="endArrow=none;dashed=1;html=1;dashPattern=1 3;strokeWidth=2;rounded=0;" parent="f2LQSJBOT8YH_bBwWJ3X-103" edge="1">
          <mxGeometry width="50" height="50" relative="1" as="geometry">
            <mxPoint x="120" y="40" as="sourcePoint" />
            <mxPoint x="120" as="targetPoint" />
          </mxGeometry>
        </mxCell>
        <mxCell id="f2LQSJBOT8YH_bBwWJ3X-108" value="" style="endArrow=none;html=1;rounded=0;" parent="1" edge="1">
          <mxGeometry width="50" height="50" relative="1" as="geometry">
            <mxPoint x="250" y="559.71" as="sourcePoint" />
            <mxPoint x="310" y="559.71" as="targetPoint" />
          </mxGeometry>
        </mxCell>
        <mxCell id="f2LQSJBOT8YH_bBwWJ3X-109" value="" style="endArrow=none;html=1;rounded=0;" parent="1" edge="1">
          <mxGeometry width="50" height="50" relative="1" as="geometry">
            <mxPoint x="310" y="539.71" as="sourcePoint" />
            <mxPoint x="310" y="559.71" as="targetPoint" />
          </mxGeometry>
        </mxCell>
        <mxCell id="f2LQSJBOT8YH_bBwWJ3X-110" value="" style="endArrow=none;html=1;rounded=0;" parent="1" edge="1">
          <mxGeometry width="50" height="50" relative="1" as="geometry">
            <mxPoint x="310" y="539.71" as="sourcePoint" />
            <mxPoint x="320" y="539.71" as="targetPoint" />
          </mxGeometry>
        </mxCell>
        <mxCell id="f2LQSJBOT8YH_bBwWJ3X-111" value="" style="endArrow=none;html=1;rounded=0;" parent="1" edge="1">
          <mxGeometry width="50" height="50" relative="1" as="geometry">
            <mxPoint x="320" y="539.71" as="sourcePoint" />
            <mxPoint x="320" y="559.71" as="targetPoint" />
          </mxGeometry>
        </mxCell>
        <mxCell id="f2LQSJBOT8YH_bBwWJ3X-112" value="" style="endArrow=none;html=1;rounded=0;" parent="1" edge="1">
          <mxGeometry width="50" height="50" relative="1" as="geometry">
            <mxPoint x="320" y="559.71" as="sourcePoint" />
            <mxPoint x="530" y="559.71" as="targetPoint" />
          </mxGeometry>
        </mxCell>
        <mxCell id="f2LQSJBOT8YH_bBwWJ3X-129" value="FET" style="text;html=1;align=center;verticalAlign=middle;resizable=0;points=[];autosize=1;strokeColor=none;fillColor=none;fontSize=20;" parent="1" vertex="1">
          <mxGeometry x="13" y="343" width="60" height="40" as="geometry" />
        </mxCell>
        <mxCell id="f2LQSJBOT8YH_bBwWJ3X-130" value="ready" style="text;html=1;align=center;verticalAlign=middle;resizable=0;points=[];autosize=1;strokeColor=none;fillColor=none;" parent="1" vertex="1">
          <mxGeometry x="70" y="360" width="50" height="30" as="geometry" />
        </mxCell>
        <mxCell id="f2LQSJBOT8YH_bBwWJ3X-131" value="valid" style="text;html=1;align=center;verticalAlign=middle;resizable=0;points=[];autosize=1;strokeColor=none;fillColor=none;" parent="1" vertex="1">
          <mxGeometry x="70" y="410" width="50" height="30" as="geometry" />
        </mxCell>
        <mxCell id="f2LQSJBOT8YH_bBwWJ3X-132" value="DEC" style="text;html=1;align=center;verticalAlign=middle;resizable=0;points=[];autosize=1;strokeColor=none;fillColor=none;fontSize=20;" parent="1" vertex="1">
          <mxGeometry x="9" y="461.71" width="70" height="40" as="geometry" />
        </mxCell>
        <mxCell id="f2LQSJBOT8YH_bBwWJ3X-207" value="" style="rounded=0;whiteSpace=wrap;html=1;fillColor=none;strokeWidth=2;dashed=1;" parent="1" vertex="1">
          <mxGeometry x="20" y="590.29" width="1060" height="100" as="geometry" />
        </mxCell>
        <mxCell id="f2LQSJBOT8YH_bBwWJ3X-208" value="" style="endArrow=none;html=1;rounded=0;" parent="1" edge="1">
          <mxGeometry width="50" height="50" relative="1" as="geometry">
            <mxPoint x="250" y="600.12" as="sourcePoint" />
            <mxPoint x="320" y="600.12" as="targetPoint" />
          </mxGeometry>
        </mxCell>
        <mxCell id="f2LQSJBOT8YH_bBwWJ3X-209" value="" style="endArrow=none;html=1;rounded=0;" parent="1" edge="1">
          <mxGeometry width="50" height="50" relative="1" as="geometry">
            <mxPoint x="320" y="600.12" as="sourcePoint" />
            <mxPoint x="320" y="620.12" as="targetPoint" />
          </mxGeometry>
        </mxCell>
        <mxCell id="f2LQSJBOT8YH_bBwWJ3X-211" value="" style="group" parent="1" vertex="1" connectable="0">
          <mxGeometry x="320" y="620.12" width="120" height="40" as="geometry" />
        </mxCell>
        <mxCell id="f2LQSJBOT8YH_bBwWJ3X-212" value="" style="endArrow=classic;startArrow=classic;html=1;rounded=0;curved=0;" parent="f2LQSJBOT8YH_bBwWJ3X-211" edge="1">
          <mxGeometry width="50" height="50" relative="1" as="geometry">
            <mxPoint y="20" as="sourcePoint" />
            <mxPoint x="120" y="20" as="targetPoint" />
          </mxGeometry>
        </mxCell>
        <mxCell id="f2LQSJBOT8YH_bBwWJ3X-213" value="working period" style="edgeLabel;html=1;align=center;verticalAlign=middle;resizable=0;points=[];" parent="f2LQSJBOT8YH_bBwWJ3X-212" vertex="1" connectable="0">
          <mxGeometry x="0.008" relative="1" as="geometry">
            <mxPoint as="offset" />
          </mxGeometry>
        </mxCell>
        <mxCell id="f2LQSJBOT8YH_bBwWJ3X-214" value="" style="endArrow=none;dashed=1;html=1;dashPattern=1 3;strokeWidth=2;rounded=0;" parent="f2LQSJBOT8YH_bBwWJ3X-211" edge="1">
          <mxGeometry width="50" height="50" relative="1" as="geometry">
            <mxPoint y="40" as="sourcePoint" />
            <mxPoint as="targetPoint" />
          </mxGeometry>
        </mxCell>
        <mxCell id="f2LQSJBOT8YH_bBwWJ3X-215" value="" style="endArrow=none;dashed=1;html=1;dashPattern=1 3;strokeWidth=2;rounded=0;" parent="f2LQSJBOT8YH_bBwWJ3X-211" edge="1">
          <mxGeometry width="50" height="50" relative="1" as="geometry">
            <mxPoint x="120" y="40" as="sourcePoint" />
            <mxPoint x="120" as="targetPoint" />
          </mxGeometry>
        </mxCell>
        <mxCell id="f2LQSJBOT8YH_bBwWJ3X-216" value="" style="endArrow=none;html=1;rounded=0;" parent="1" edge="1">
          <mxGeometry width="50" height="50" relative="1" as="geometry">
            <mxPoint x="380" y="680.12" as="sourcePoint" />
            <mxPoint x="440" y="680.12" as="targetPoint" />
          </mxGeometry>
        </mxCell>
        <mxCell id="f2LQSJBOT8YH_bBwWJ3X-217" value="" style="endArrow=none;html=1;rounded=0;" parent="1" edge="1">
          <mxGeometry width="50" height="50" relative="1" as="geometry">
            <mxPoint x="440" y="660.12" as="sourcePoint" />
            <mxPoint x="440" y="680.12" as="targetPoint" />
          </mxGeometry>
        </mxCell>
        <mxCell id="f2LQSJBOT8YH_bBwWJ3X-218" value="" style="endArrow=none;html=1;rounded=0;" parent="1" edge="1">
          <mxGeometry width="50" height="50" relative="1" as="geometry">
            <mxPoint x="440" y="660.12" as="sourcePoint" />
            <mxPoint x="450" y="660.12" as="targetPoint" />
          </mxGeometry>
        </mxCell>
        <mxCell id="f2LQSJBOT8YH_bBwWJ3X-219" value="" style="endArrow=none;html=1;rounded=0;" parent="1" edge="1">
          <mxGeometry width="50" height="50" relative="1" as="geometry">
            <mxPoint x="450" y="660.12" as="sourcePoint" />
            <mxPoint x="450" y="680.12" as="targetPoint" />
          </mxGeometry>
        </mxCell>
        <mxCell id="f2LQSJBOT8YH_bBwWJ3X-220" value="" style="endArrow=none;html=1;rounded=0;" parent="1" edge="1">
          <mxGeometry width="50" height="50" relative="1" as="geometry">
            <mxPoint x="450" y="680.12" as="sourcePoint" />
            <mxPoint x="660" y="680.12" as="targetPoint" />
          </mxGeometry>
        </mxCell>
        <mxCell id="f2LQSJBOT8YH_bBwWJ3X-221" value="EXE" style="text;html=1;align=center;verticalAlign=middle;resizable=0;points=[];autosize=1;strokeColor=none;fillColor=none;fontSize=20;" parent="1" vertex="1">
          <mxGeometry x="14" y="582" width="60" height="40" as="geometry" />
        </mxCell>
        <mxCell id="f2LQSJBOT8YH_bBwWJ3X-233" value="" style="rounded=0;whiteSpace=wrap;html=1;fillColor=none;strokeWidth=2;dashed=1;" parent="1" vertex="1">
          <mxGeometry x="20" y="710" width="1060" height="100" as="geometry" />
        </mxCell>
        <mxCell id="f2LQSJBOT8YH_bBwWJ3X-234" value="" style="endArrow=none;html=1;rounded=0;" parent="1" edge="1">
          <mxGeometry width="50" height="50" relative="1" as="geometry">
            <mxPoint x="380" y="719.88" as="sourcePoint" />
            <mxPoint x="450" y="719.88" as="targetPoint" />
          </mxGeometry>
        </mxCell>
        <mxCell id="f2LQSJBOT8YH_bBwWJ3X-235" value="" style="endArrow=none;html=1;rounded=0;" parent="1" edge="1">
          <mxGeometry width="50" height="50" relative="1" as="geometry">
            <mxPoint x="450" y="719.88" as="sourcePoint" />
            <mxPoint x="450" y="739.88" as="targetPoint" />
          </mxGeometry>
        </mxCell>
        <mxCell id="f2LQSJBOT8YH_bBwWJ3X-237" value="" style="group" parent="1" vertex="1" connectable="0">
          <mxGeometry x="450" y="741.88" width="120" height="40" as="geometry" />
        </mxCell>
        <mxCell id="f2LQSJBOT8YH_bBwWJ3X-238" value="" style="endArrow=classic;startArrow=classic;html=1;rounded=0;curved=0;" parent="f2LQSJBOT8YH_bBwWJ3X-237" edge="1">
          <mxGeometry width="50" height="50" relative="1" as="geometry">
            <mxPoint y="20" as="sourcePoint" />
            <mxPoint x="120" y="20" as="targetPoint" />
          </mxGeometry>
        </mxCell>
        <mxCell id="f2LQSJBOT8YH_bBwWJ3X-239" value="working period" style="edgeLabel;html=1;align=center;verticalAlign=middle;resizable=0;points=[];" parent="f2LQSJBOT8YH_bBwWJ3X-238" vertex="1" connectable="0">
          <mxGeometry x="0.008" relative="1" as="geometry">
            <mxPoint as="offset" />
          </mxGeometry>
        </mxCell>
        <mxCell id="f2LQSJBOT8YH_bBwWJ3X-240" value="" style="endArrow=none;dashed=1;html=1;dashPattern=1 3;strokeWidth=2;rounded=0;" parent="f2LQSJBOT8YH_bBwWJ3X-237" edge="1">
          <mxGeometry width="50" height="50" relative="1" as="geometry">
            <mxPoint y="40" as="sourcePoint" />
            <mxPoint as="targetPoint" />
          </mxGeometry>
        </mxCell>
        <mxCell id="f2LQSJBOT8YH_bBwWJ3X-241" value="" style="endArrow=none;dashed=1;html=1;dashPattern=1 3;strokeWidth=2;rounded=0;" parent="f2LQSJBOT8YH_bBwWJ3X-237" edge="1">
          <mxGeometry width="50" height="50" relative="1" as="geometry">
            <mxPoint x="120" y="40" as="sourcePoint" />
            <mxPoint x="120" as="targetPoint" />
          </mxGeometry>
        </mxCell>
        <mxCell id="f2LQSJBOT8YH_bBwWJ3X-242" value="" style="endArrow=none;html=1;rounded=0;" parent="1" edge="1">
          <mxGeometry width="50" height="50" relative="1" as="geometry">
            <mxPoint x="510" y="799.88" as="sourcePoint" />
            <mxPoint x="570" y="799.88" as="targetPoint" />
          </mxGeometry>
        </mxCell>
        <mxCell id="f2LQSJBOT8YH_bBwWJ3X-243" value="" style="endArrow=none;html=1;rounded=0;" parent="1" edge="1">
          <mxGeometry width="50" height="50" relative="1" as="geometry">
            <mxPoint x="570" y="779.88" as="sourcePoint" />
            <mxPoint x="570" y="799.88" as="targetPoint" />
          </mxGeometry>
        </mxCell>
        <mxCell id="f2LQSJBOT8YH_bBwWJ3X-244" value="" style="endArrow=none;html=1;rounded=0;" parent="1" edge="1">
          <mxGeometry width="50" height="50" relative="1" as="geometry">
            <mxPoint x="570" y="779.88" as="sourcePoint" />
            <mxPoint x="580" y="779.88" as="targetPoint" />
          </mxGeometry>
        </mxCell>
        <mxCell id="f2LQSJBOT8YH_bBwWJ3X-245" value="" style="endArrow=none;html=1;rounded=0;" parent="1" edge="1">
          <mxGeometry width="50" height="50" relative="1" as="geometry">
            <mxPoint x="580" y="779.88" as="sourcePoint" />
            <mxPoint x="580" y="799.88" as="targetPoint" />
          </mxGeometry>
        </mxCell>
        <mxCell id="f2LQSJBOT8YH_bBwWJ3X-246" value="" style="endArrow=none;html=1;rounded=0;" parent="1" edge="1">
          <mxGeometry width="50" height="50" relative="1" as="geometry">
            <mxPoint x="580" y="799.88" as="sourcePoint" />
            <mxPoint x="790" y="799.88" as="targetPoint" />
          </mxGeometry>
        </mxCell>
        <mxCell id="f2LQSJBOT8YH_bBwWJ3X-247" value="MEM" style="text;html=1;align=center;verticalAlign=middle;resizable=0;points=[];autosize=1;strokeColor=none;fillColor=none;fontSize=20;" parent="1" vertex="1">
          <mxGeometry x="12" y="701" width="70" height="40" as="geometry" />
        </mxCell>
        <mxCell id="f2LQSJBOT8YH_bBwWJ3X-248" value="" style="rounded=0;whiteSpace=wrap;html=1;fillColor=none;strokeWidth=2;dashed=1;" parent="1" vertex="1">
          <mxGeometry x="20" y="829" width="1060" height="100" as="geometry" />
        </mxCell>
        <mxCell id="f2LQSJBOT8YH_bBwWJ3X-249" value="" style="endArrow=none;html=1;rounded=0;" parent="1" edge="1">
          <mxGeometry width="50" height="50" relative="1" as="geometry">
            <mxPoint x="510" y="839.71" as="sourcePoint" />
            <mxPoint x="580" y="839.71" as="targetPoint" />
          </mxGeometry>
        </mxCell>
        <mxCell id="f2LQSJBOT8YH_bBwWJ3X-250" value="" style="endArrow=none;html=1;rounded=0;" parent="1" edge="1">
          <mxGeometry width="50" height="50" relative="1" as="geometry">
            <mxPoint x="580" y="839.71" as="sourcePoint" />
            <mxPoint x="580" y="859.71" as="targetPoint" />
          </mxGeometry>
        </mxCell>
        <mxCell id="f2LQSJBOT8YH_bBwWJ3X-252" value="" style="group" parent="1" vertex="1" connectable="0">
          <mxGeometry x="580" y="861.71" width="120" height="40" as="geometry" />
        </mxCell>
        <mxCell id="f2LQSJBOT8YH_bBwWJ3X-253" value="" style="endArrow=classic;startArrow=classic;html=1;rounded=0;curved=0;" parent="f2LQSJBOT8YH_bBwWJ3X-252" edge="1">
          <mxGeometry width="50" height="50" relative="1" as="geometry">
            <mxPoint y="20" as="sourcePoint" />
            <mxPoint x="120" y="20" as="targetPoint" />
          </mxGeometry>
        </mxCell>
        <mxCell id="f2LQSJBOT8YH_bBwWJ3X-254" value="working period" style="edgeLabel;html=1;align=center;verticalAlign=middle;resizable=0;points=[];" parent="f2LQSJBOT8YH_bBwWJ3X-253" vertex="1" connectable="0">
          <mxGeometry x="0.008" relative="1" as="geometry">
            <mxPoint as="offset" />
          </mxGeometry>
        </mxCell>
        <mxCell id="f2LQSJBOT8YH_bBwWJ3X-255" value="" style="endArrow=none;dashed=1;html=1;dashPattern=1 3;strokeWidth=2;rounded=0;" parent="f2LQSJBOT8YH_bBwWJ3X-252" edge="1">
          <mxGeometry width="50" height="50" relative="1" as="geometry">
            <mxPoint y="40" as="sourcePoint" />
            <mxPoint as="targetPoint" />
          </mxGeometry>
        </mxCell>
        <mxCell id="f2LQSJBOT8YH_bBwWJ3X-256" value="" style="endArrow=none;dashed=1;html=1;dashPattern=1 3;strokeWidth=2;rounded=0;" parent="f2LQSJBOT8YH_bBwWJ3X-252" edge="1">
          <mxGeometry width="50" height="50" relative="1" as="geometry">
            <mxPoint x="120" y="40" as="sourcePoint" />
            <mxPoint x="120" as="targetPoint" />
          </mxGeometry>
        </mxCell>
        <mxCell id="f2LQSJBOT8YH_bBwWJ3X-257" value="" style="endArrow=none;html=1;rounded=0;" parent="1" edge="1">
          <mxGeometry width="50" height="50" relative="1" as="geometry">
            <mxPoint x="640" y="919.71" as="sourcePoint" />
            <mxPoint x="700" y="919.71" as="targetPoint" />
          </mxGeometry>
        </mxCell>
        <mxCell id="f2LQSJBOT8YH_bBwWJ3X-258" value="" style="endArrow=none;html=1;rounded=0;" parent="1" edge="1">
          <mxGeometry width="50" height="50" relative="1" as="geometry">
            <mxPoint x="700" y="899.71" as="sourcePoint" />
            <mxPoint x="700" y="919.71" as="targetPoint" />
          </mxGeometry>
        </mxCell>
        <mxCell id="f2LQSJBOT8YH_bBwWJ3X-259" value="" style="endArrow=none;html=1;rounded=0;" parent="1" edge="1">
          <mxGeometry width="50" height="50" relative="1" as="geometry">
            <mxPoint x="700" y="899.71" as="sourcePoint" />
            <mxPoint x="710" y="899.71" as="targetPoint" />
          </mxGeometry>
        </mxCell>
        <mxCell id="f2LQSJBOT8YH_bBwWJ3X-260" value="" style="endArrow=none;html=1;rounded=0;" parent="1" edge="1">
          <mxGeometry width="50" height="50" relative="1" as="geometry">
            <mxPoint x="710" y="899.71" as="sourcePoint" />
            <mxPoint x="710" y="919.71" as="targetPoint" />
          </mxGeometry>
        </mxCell>
        <mxCell id="f2LQSJBOT8YH_bBwWJ3X-261" value="" style="endArrow=none;html=1;rounded=0;" parent="1" edge="1">
          <mxGeometry width="50" height="50" relative="1" as="geometry">
            <mxPoint x="580" y="928.43" as="sourcePoint" />
            <mxPoint x="790" y="928.43" as="targetPoint" />
          </mxGeometry>
        </mxCell>
        <mxCell id="f2LQSJBOT8YH_bBwWJ3X-262" value="WB" style="text;html=1;align=center;verticalAlign=middle;resizable=0;points=[];autosize=1;strokeColor=none;fillColor=none;fontSize=20;" parent="1" vertex="1">
          <mxGeometry x="17" y="820" width="60" height="40" as="geometry" />
        </mxCell>
        <mxCell id="f2LQSJBOT8YH_bBwWJ3X-263" value="" style="endArrow=none;html=1;rounded=0;" parent="1" edge="1">
          <mxGeometry width="50" height="50" relative="1" as="geometry">
            <mxPoint x="710" y="920" as="sourcePoint" />
            <mxPoint x="920" y="920" as="targetPoint" />
          </mxGeometry>
        </mxCell>
        <mxCell id="HEikoTUdFmElRXsZ4B_V-1" value="ready" style="text;html=1;align=center;verticalAlign=middle;resizable=0;points=[];autosize=1;strokeColor=none;fillColor=none;" vertex="1" parent="1">
          <mxGeometry x="70" y="480" width="50" height="30" as="geometry" />
        </mxCell>
        <mxCell id="HEikoTUdFmElRXsZ4B_V-2" value="valid" style="text;html=1;align=center;verticalAlign=middle;resizable=0;points=[];autosize=1;strokeColor=none;fillColor=none;" vertex="1" parent="1">
          <mxGeometry x="70" y="530" width="50" height="30" as="geometry" />
        </mxCell>
        <mxCell id="HEikoTUdFmElRXsZ4B_V-3" value="ready" style="text;html=1;align=center;verticalAlign=middle;resizable=0;points=[];autosize=1;strokeColor=none;fillColor=none;" vertex="1" parent="1">
          <mxGeometry x="200" y="600.12" width="50" height="30" as="geometry" />
        </mxCell>
        <mxCell id="HEikoTUdFmElRXsZ4B_V-4" value="valid" style="text;html=1;align=center;verticalAlign=middle;resizable=0;points=[];autosize=1;strokeColor=none;fillColor=none;" vertex="1" parent="1">
          <mxGeometry x="200" y="650.12" width="50" height="30" as="geometry" />
        </mxCell>
        <mxCell id="HEikoTUdFmElRXsZ4B_V-5" value="ready" style="text;html=1;align=center;verticalAlign=middle;resizable=0;points=[];autosize=1;strokeColor=none;fillColor=none;" vertex="1" parent="1">
          <mxGeometry x="330" y="720" width="50" height="30" as="geometry" />
        </mxCell>
        <mxCell id="HEikoTUdFmElRXsZ4B_V-6" value="valid" style="text;html=1;align=center;verticalAlign=middle;resizable=0;points=[];autosize=1;strokeColor=none;fillColor=none;" vertex="1" parent="1">
          <mxGeometry x="330" y="770" width="50" height="30" as="geometry" />
        </mxCell>
        <mxCell id="HEikoTUdFmElRXsZ4B_V-7" value="ready" style="text;html=1;align=center;verticalAlign=middle;resizable=0;points=[];autosize=1;strokeColor=none;fillColor=none;" vertex="1" parent="1">
          <mxGeometry x="460" y="839" width="50" height="30" as="geometry" />
        </mxCell>
        <mxCell id="HEikoTUdFmElRXsZ4B_V-8" value="valid" style="text;html=1;align=center;verticalAlign=middle;resizable=0;points=[];autosize=1;strokeColor=none;fillColor=none;" vertex="1" parent="1">
          <mxGeometry x="460" y="889" width="50" height="30" as="geometry" />
        </mxCell>
        <mxCell id="HEikoTUdFmElRXsZ4B_V-9" value="" style="endArrow=none;html=1;rounded=0;" edge="1" parent="1">
          <mxGeometry width="50" height="50" relative="1" as="geometry">
            <mxPoint x="310" y="480.00000000000006" as="sourcePoint" />
            <mxPoint x="310" y="500.00000000000006" as="targetPoint" />
          </mxGeometry>
        </mxCell>
        <mxCell id="HEikoTUdFmElRXsZ4B_V-12" value="" style="endArrow=none;html=1;rounded=0;" edge="1" parent="1">
          <mxGeometry width="50" height="50" relative="1" as="geometry">
            <mxPoint x="310" y="480" as="sourcePoint" />
            <mxPoint x="380" y="480" as="targetPoint" />
          </mxGeometry>
        </mxCell>
        <mxCell id="HEikoTUdFmElRXsZ4B_V-13" value="" style="endArrow=none;html=1;rounded=0;" edge="1" parent="1">
          <mxGeometry width="50" height="50" relative="1" as="geometry">
            <mxPoint x="260" y="310" as="sourcePoint" />
            <mxPoint x="380" y="310.28999999999996" as="targetPoint" />
          </mxGeometry>
        </mxCell>
        <mxCell id="HEikoTUdFmElRXsZ4B_V-14" value="" style="endArrow=none;html=1;rounded=0;" edge="1" parent="1">
          <mxGeometry width="50" height="50" relative="1" as="geometry">
            <mxPoint x="380" y="290.2900000000001" as="sourcePoint" />
            <mxPoint x="380" y="310.2900000000001" as="targetPoint" />
          </mxGeometry>
        </mxCell>
        <mxCell id="HEikoTUdFmElRXsZ4B_V-15" value="" style="endArrow=none;html=1;rounded=0;" edge="1" parent="1">
          <mxGeometry width="50" height="50" relative="1" as="geometry">
            <mxPoint x="380" y="290.28999999999996" as="sourcePoint" />
            <mxPoint x="450" y="290.28999999999996" as="targetPoint" />
          </mxGeometry>
        </mxCell>
        <mxCell id="HEikoTUdFmElRXsZ4B_V-21" value="" style="endArrow=none;html=1;rounded=0;" edge="1" parent="1">
          <mxGeometry width="50" height="50" relative="1" as="geometry">
            <mxPoint x="320" y="619.12" as="sourcePoint" />
            <mxPoint x="440" y="619.41" as="targetPoint" />
          </mxGeometry>
        </mxCell>
        <mxCell id="HEikoTUdFmElRXsZ4B_V-22" value="" style="endArrow=none;html=1;rounded=0;" edge="1" parent="1">
          <mxGeometry width="50" height="50" relative="1" as="geometry">
            <mxPoint x="440" y="599.4100000000001" as="sourcePoint" />
            <mxPoint x="440" y="619.4100000000001" as="targetPoint" />
          </mxGeometry>
        </mxCell>
        <mxCell id="HEikoTUdFmElRXsZ4B_V-23" value="" style="endArrow=none;html=1;rounded=0;" edge="1" parent="1">
          <mxGeometry width="50" height="50" relative="1" as="geometry">
            <mxPoint x="440" y="599.41" as="sourcePoint" />
            <mxPoint x="510" y="599.41" as="targetPoint" />
          </mxGeometry>
        </mxCell>
        <mxCell id="HEikoTUdFmElRXsZ4B_V-24" value="" style="endArrow=none;html=1;rounded=0;" edge="1" parent="1">
          <mxGeometry width="50" height="50" relative="1" as="geometry">
            <mxPoint x="450" y="739.71" as="sourcePoint" />
            <mxPoint x="570" y="740" as="targetPoint" />
          </mxGeometry>
        </mxCell>
        <mxCell id="HEikoTUdFmElRXsZ4B_V-25" value="" style="endArrow=none;html=1;rounded=0;" edge="1" parent="1">
          <mxGeometry width="50" height="50" relative="1" as="geometry">
            <mxPoint x="570" y="720.0000000000001" as="sourcePoint" />
            <mxPoint x="570" y="740.0000000000001" as="targetPoint" />
          </mxGeometry>
        </mxCell>
        <mxCell id="HEikoTUdFmElRXsZ4B_V-26" value="" style="endArrow=none;html=1;rounded=0;" edge="1" parent="1">
          <mxGeometry width="50" height="50" relative="1" as="geometry">
            <mxPoint x="570" y="720" as="sourcePoint" />
            <mxPoint x="640" y="720" as="targetPoint" />
          </mxGeometry>
        </mxCell>
        <mxCell id="HEikoTUdFmElRXsZ4B_V-27" value="" style="endArrow=none;html=1;rounded=0;" edge="1" parent="1">
          <mxGeometry width="50" height="50" relative="1" as="geometry">
            <mxPoint x="580" y="858.71" as="sourcePoint" />
            <mxPoint x="700" y="859" as="targetPoint" />
          </mxGeometry>
        </mxCell>
        <mxCell id="HEikoTUdFmElRXsZ4B_V-28" value="" style="endArrow=none;html=1;rounded=0;" edge="1" parent="1">
          <mxGeometry width="50" height="50" relative="1" as="geometry">
            <mxPoint x="700" y="839.0000000000001" as="sourcePoint" />
            <mxPoint x="700" y="859.0000000000001" as="targetPoint" />
          </mxGeometry>
        </mxCell>
        <mxCell id="HEikoTUdFmElRXsZ4B_V-29" value="" style="endArrow=none;html=1;rounded=0;" edge="1" parent="1">
          <mxGeometry width="50" height="50" relative="1" as="geometry">
            <mxPoint x="700" y="839" as="sourcePoint" />
            <mxPoint x="770" y="839" as="targetPoint" />
          </mxGeometry>
        </mxCell>
      </root>
    </mxGraphModel>
  </diagram>
</mxfile>
